HIERARCHY
ROOT Hip
{
	OFFSET 0 0 0
	CHANNELS 6 Xposition Yposition Zposition Zrotation Yrotation Xrotation
	JOINT ShoulderCenter
	{
		OFFSET 0 0.4363 0
		CHANNELS 3 Zrotation Yrotation Xrotation
		JOINT Head
		{
			OFFSET 0 0.1849 0
			CHANNELS 3 Zrotation Yrotation Xrotation
			End Site
			{
				OFFSET 0.0 0.0891 0.0
			}
		}
		JOINT ShoulderLeft
		{
			OFFSET -0.14 0 0
			CHANNELS 3 Zrotation Yrotation Xrotation
			JOINT ElbowLeft
			{
				OFFSET -0.25 0 0
				CHANNELS 3 Zrotation Yrotation Xrotation
				JOINT WristLeft
				{
					OFFSET -0.23 0 0
					CHANNELS 3 Zrotation Yrotation Xrotation
					End Site
					{
						OFFSET -0.0832 0.0 0.0
					}
				}
			}
		}
		JOINT ShoulderRight
		{
			OFFSET 0.14 0 0
			CHANNELS 3 Zrotation Yrotation Xrotation
			JOINT ElbowRight
			{
				OFFSET 0.25 0 0
				CHANNELS 3 Zrotation Yrotation Xrotation
				JOINT WristRight
				{
					OFFSET 0.23 0 0
					CHANNELS 3 Zrotation Yrotation Xrotation
					End Site
					{
						OFFSET 0.0832 0.0 0.0
					}
				}
			}
		}
	}
	JOINT HipLeft
	{
		OFFSET -0.0952 0 0
		CHANNELS 3 Zrotation Yrotation Xrotation
		JOINT KneeLeft
		{
			OFFSET 0 -0.3732 0
			CHANNELS 3 Zrotation Yrotation Xrotation
			JOINT AnkleLeft
			{
				OFFSET 0 -0.346 0
				CHANNELS 3 Zrotation Yrotation Xrotation
				End Site
				{
					OFFSET 0.0 0.0 0.0891
				}
			}
		}
	}
	JOINT HipRight
	{
		OFFSET 0.0952 0 0
		CHANNELS 3 Zrotation Yrotation Xrotation
		JOINT KneeRight
		{
			OFFSET 0 -0.3732 0
			CHANNELS 3 Zrotation Yrotation Xrotation
			JOINT AnkleRight
			{
				OFFSET 0 -0.346 0
				CHANNELS 3 Zrotation Yrotation Xrotation
				End Site
				{
					OFFSET 0.0 0.0 0.0891
				}
			}
		}
	}
}
MOTION
Frames: 31
Frame Time: 0.033333
7.62359e-05 -3.61337e-05 -0.00242799 1.19124 -0.95348 -6.42915 3.92336 0.440878 0.253881 0 0 0 0 0 0 0 0 0 0 0 0 0 0 0 0 0 0 0 0 0 2.30052 2.8982 0.269138 -8.96886 1.41215 -40.1595 0 0 0 -5.40125 -14.4213 1.1886 21.5489 15.2608 -33.9147 0 0 0 
7.60505e-05 -3.62156e-05 -0.00242809 1.15297 -1.0925 -6.38889 4.0937 0.469081 0.249821 0 0 -1.66753e-09 0 0 0 0 0 0 0 0 0 0 0 0 0 0 0 0 0 0 2.36623 -0.914821 0.216542 0.845034 4.95176 -28.1798 0 0 0 -5.37139 -15.9401 1.15827 22.9357 16.143 -33.7656 0 0 0 
7.58307e-05 -3.62666e-05 -0.00242809 1.1014 -1.15772 -6.353 4.31388 0.224098 0.375224 0 0 0 0 0 0 0 0 0 0 0 0 0 0 0 0 0 0 0 0 0 2.37756 -0.972111 0.179041 1.06153 4.99583 -28.1894 -4.26887e-07 -1.06722e-07 3.97569e-16 -5.42504 -22.4045 1.19396 28.2942 19.4325 -32.2418 0 0 0 
7.55501e-05 -3.63512e-05 -0.00242809 0.980457 -1.26201 -6.30193 4.63746 0.02913 0.300414 0 0 0 0 0 0 0 0 0 0 0 0 0 0 0 0 0 0 0 0 0 2.55659 -0.982226 0.175736 1.06712 4.99857 -28.3306 0 0 0 -5.30737 -25.0986 1.16379 30.5284 20.3571 -31.1973 0 0 0 
7.53282e-05 -3.6486e-05 -0.00242809 0.925028 -1.31789 -6.28028 4.76033 -0.078056 0.304608 0 0 0 0 0 0 0 0 0 0 0 0 0 0 0 0 0 0 0 0 0 2.66655 2.43156 0.200588 -7.97291 0.647752 -35.0347 0 0 -6.67011e-09 -5.15177 -22.6986 1.12583 27.7261 19.4854 -33.4166 0 0 0 
7.53282e-05 -3.6486e-05 -0.00242807 0.884513 -1.44595 -6.259 4.90343 -0.244852 0.333702 0 0 0 0 0 0 0 0 0 0 0 0 0 0 0 0 0 0 0 0 0 2.73499 2.40595 0.159409 -7.92664 0.706837 -35.0274 0 0 0 -5.09555 -23.0695 1.09598 28.0471 19.6495 -33.2422 0 0 0 
7.53282e-05 -3.6486e-05 -0.00242804 0.817126 -1.48266 -6.18173 5.09445 -0.346388 0.142821 0 0 0 0 0 0 0 0 0 0 0 0 0 0 0 0 0 0 0 0 0 2.80945 2.41326 0.0854767 -7.92679 0.714733 -35.0304 0 0 0 -5.00392 -23.424 1.02634 28.1473 19.824 -33.3627 0 0 0 
7.53659e-05 -3.63988e-05 -0.00242774 0.749718 -1.73179 -6.16311 5.24843 -0.196716 0.197416 -6.67011e-09 2.48481e-17 4.26887e-07 0 0 0 0 0 0 0 0 0 0 0 0 0 0 0 0 0 0 2.96133 -1.17292 0.0782459 2.06593 5.23746 -27.07 0 0 0 -4.92106 -22.9593 1.05737 27.4437 19.7629 -33.9146 0 0 0 
7.55452e-05 -3.63602e-05 -0.00242744 0.685091 -1.88075 -6.12384 5.38454 -0.195597 0.132525 0 0 0 0 0 0 0 0 0 0 0 0 0 0 0 0 0 0 0 0 0 3.04422 -1.18522 0.0474552 2.11068 5.29244 -27.0365 0 0 0 -4.83094 -22.2471 1.07141 25.8052 19.6252 -35.5576 0 0 0 
7.57171e-05 -3.63113e-05 -0.00242714 0.65507 -1.88565 -6.12281 5.28069 -0.21531 0.180998 0 0 0 0 0 0 0 0 0 0 0 0 0 0 0 0 0 0 0 0 0 3.05788 -1.62356 0.0493189 3.70977 5.98318 -26.3347 0 0 0 -4.7597 -22.52 1.1497 25.6741 19.9685 -35.776 0 0 0 
7.60354e-05 -3.62259e-05 -0.00242692 0.632774 -1.7583 -6.13419 5.19156 -0.351762 0.186315 0 0 0 0 0 0 0 0 0 0 0 0 0 0 0 0 0 0 0 0 0 3.03971 -1.60717 0.095508 3.64957 5.98389 -26.2567 0 0 0 -4.83977 -24.8697 1.21075 28.7267 20.9273 -33.225 0 0 0 
7.68323e-05 -3.61475e-05 -0.00242647 0.614795 -1.87344 -6.11143 4.97259 -0.284859 0.250495 0 0 0 0 0 0 0 0 0 0 0 0 0 0 0 0 0 0 0 0 0 3.05452 -1.56176 0.0989531 3.7386 5.86173 -25.666 -8.27093e-07 -2.13443e-07 1.54058e-15 -4.85409 -24.0476 1.22299 27.5994 20.6625 -34.1896 0 0 0 
7.79848e-05 -3.60146e-05 -0.00242591 0.619009 -1.93344 -6.08961 4.63385 -0.221264 0.309347 0 0 0 0 0 0 0 0 0 0 0 0 0 0 0 0 0 0 0 0 0 2.97055 -1.45637 0.129556 3.72383 5.63434 -24.7489 0 0 0 -5.01642 -25.6078 1.26784 29.5189 21.2224 -32.5994 -1.70755e-06 8.53774e-07 -1.27222e-14 
7.97662e-05 -3.55004e-05 -0.00242573 0.680543 -1.97597 -6.09295 3.8836 -0.162067 0.51712 6.67011e-09 1.33402e-08 7.76503e-19 0 0 0 0 0 0 0 0 0 0 0 0 0 0 0 0 0 0 2.76733 -1.47685 0.142313 3.79584 5.66103 -24.73 0 0 0 -5.20965 -25.7076 1.28206 29.6794 21.2525 -32.4405 0 0 0 
8.06803e-05 -3.54765e-05 -0.00242511 0.65639 -1.92144 -6.10196 3.56368 -0.0716096 0.687822 6.67011e-09 2.13443e-07 6.67011e-09 0 0 0 0 0 0 0 0 0 0 0 0 0 0 0 0 0 0 2.71777 -1.40724 0.226029 3.08209 5.59398 -25.9692 0 0 0 -5.26998 -25.4634 1.35124 29.5652 21.0205 -32.5392 0 0 0 
8.2041e-05 -3.53191e-05 -0.00242461 0.536228 -1.97752 -5.95635 3.08754 -0.0484259 0.577269 6.67011e-09 -3.88251e-19 6.67011e-09 0 0 0 0 0 0 0 0 0 -81.6872 1.25889 28.2712 8.42638e-07 -27.1522 -3.71674e-06 0 0 0 2.76062 -1.51165 0.104559 3.01147 5.86995 -27.1886 0 0 0 -5.09135 -25.5249 1.19692 29.6252 21.0256 -32.5086 0 0 0 
8.3777e-05 -3.29542e-05 -0.00242423 0.487944 -2.0921 -5.80925 2.47946 0.114716 0.807714 -2.13443e-07 -7.95139e-16 -4.26887e-07 80.0411 2.74302 27.9113 -7.59006e-06 24.5009 -3.39536e-06 0 0 0 -78.9557 3.82829 35.4893 -1.47854e-06 -36.4287 -1.31109e-06 0 0 0 2.83274 -1.46248 -0.0337966 3.11884 5.34812 -27.318 0 0 0 -5.0338 -24.8456 1.00524 30.2891 19.439 -32.0302 0 0 0 
8.45138e-05 -3.17474e-05 -0.00242375 0.313864 -2.08637 -5.61354 1.79176 0.0841981 1.36286 0 2.13443e-07 0 79.7679 2.03691 30.2726 -2.33891e-06 28.3832 -5.87537e-06 0 0 0 -76.78 4.58069 38.0852 -6.5931e-06 -40.0563 9.6732e-06 0 0 0 2.96159 -0.389728 -0.236185 -1.0702 4.4211 -30.4993 0 0 0 -4.55984 -24.5634 0.811715 28.5618 20.8458 -33.199 0 0 0 
8.63605e-05 -3.01763e-05 -0.00242314 0.174711 -2.04436 -5.35321 1.4173 -0.00857547 1.57207 0 2.10108e-07 0 78.5822 0.73509 35.9095 3.92861e-06 34.5553 1.22194e-06 0 0 0 -77.0448 4.40203 38.034 2.04761e-06 -40.4262 -8.03234e-06 0 0 0 2.94705 -1.48119 -0.544444 2.85254 6.34869 -27.569 5.33608e-08 -1.06722e-07 -4.96962e-17 -4.24037 -27.5367 0.531356 30.731 22.9847 -31.3771 0 0 0 
8.63605e-05 -2.78752e-05 -0.00242216 0.0905382 -2.14178 -5.00243 1.11312 -0.404526 2.18415 0 0 0 76.8138 -0.0481938 39.6915 -1.59227e-05 36.9631 -8.92277e-06 -1.06722e-07 3.18055e-15 3.41509e-06 -77.1565 4.37996 36.8753 1.13281e-07 -40.6676 -3.68403e-06 0 0 0 3.02914 -0.390311 -1.0796 -1.27759 5.30551 -31.2894 0 0 0 -3.16703 -24.0688 -0.264131 26.1885 23.085 -34.3469 0 0 0 
8.63605e-05 -2.72815e-05 -0.00242216 0.0898228 -2.18118 -4.89564 1.09724 -0.510227 2.44554 0 0 0 76.5407 -0.00472649 40.8447 5.58274e-06 37.12 1.87446e-06 0 0 0 -77.0143 4.44386 37.2099 4.00247e-07 -41.6015 -1.52046e-07 0 0 0 2.93559 -2.56556 -1.25715 4.25078 8.71946 -30.9462 0 0 0 -2.86334 -23.1776 -0.613763 25.6369 22.9223 -34.2961 0 0 0 
8.606e-05 -2.51912e-05 -0.00242216 0.0833858 -2.78515 -4.52885 1.10281 -0.528244 2.69444 0 0 0 76.3079 0.194925 42.9474 -8.87382e-07 37.0342 -2.97208e-07 0 0 0 -74.8167 5.25693 39.4065 5.65353e-06 -45.029 -9.73717e-06 0 0 0 3.26355 -4.02838 -1.76136 6.4348 11.126 -32.5756 0 0 0 -2.23179 -20.6094 -1.73414 24.1849 21.5364 -34.4356 0 8.53774e-07 0 
8.25559e-05 -1.88968e-05 -0.00242239 0.247826 -3.62858 -3.91666 1.85581 -0.52315 3.63746 0 0 0 75.4054 -1.25085 40.4856 2.49767e-06 37.9881 2.6656e-06 0 0 0 -70.7691 7.62698 42.225 1.13898e-05 -52.2972 -9.39624e-06 0 0 0 3.62017 -3.22281 -2.71244 8.22825 7.70172 -28.4674 -8.53774e-07 2.54444e-14 3.41509e-06 -1.15907 -11.6494 -4.17982 19.1371 12.8152 -34.0375 0 0 0 
8.14089e-05 -1.67218e-05 -0.00242284 0.480952 -3.95022 -3.87792 2.03224 -0.853743 4.75518 0 0 0 75.1047 -1.20713 38.7035 -5.82441e-06 38.7366 -3.85746e-06 0 0 0 -69.4058 8.30548 42.2276 -1.3418e-05 -55.1816 7.01203e-06 0 0 0 2.98197 -3.58171 -2.71531 7.82289 6.86755 -31.8393 -8.53774e-07 2.54444e-14 3.41509e-06 2.1201 0.951534 -5.77055 -2.62081 -0.215325 -30.9784 1.06722e-07 0 0 
7.8197e-05 -1.65151e-05 -0.00242484 0.684436 -5.18317 -3.51019 2.98117 -0.489762 5.992 0 0 0 74.004 -2.25195 35.4955 -7.37999e-06 41.5734 -6.45431e-06 0 0 0 -66.3985 10.5977 44.7029 -2.06289e-05 -60.8434 8.15308e-06 0 0 0 1.82892 -5.8776 -2.5715 13.013 7.96172 -31.3297 0 0 0 4.02463 1.61503 -7.17637 -5.58397 -1.22997 -23.4052 0 0 0 
7.7176e-05 -1.65151e-05 -0.00242506 0.718882 -5.66163 -3.02499 3.82613 -0.43305 5.87334 0 0 -2.40124e-07 73.5376 -2.83328 33.4244 -1.46386e-05 42.3147 -9.32734e-06 0 0 0 -65.5634 11.5446 45.1131 5.25484e-05 -65.9406 -4.62986e-05 0 0 0 1.55447 0.230602 -2.83297 -0.390305 -0.399735 -37.413 0 0 0 4.00839 2.28972 -7.6648 -8.53844 -2.22941 -21.3806 3.18055e-15 1.06722e-07 3.41509e-06 
7.44835e-05 -1.65151e-05 -0.00242604 1.05249 -6.82955 -1.69865 4.40305 0.187004 4.74405 0 0 -2.13443e-07 73.3331 -4.03583 32.2906 3.51521e-06 43.422 1.39965e-06 -1.06722e-07 2.13443e-07 -1.98785e-16 -64.3484 13.3667 45.3339 -1.57542e-05 -70.0763 1.52178e-05 0 0 0 1.63567 -0.0248059 -4.10478 0.447083 -0.727234 -38.4855 0 0 0 3.95501 2.0647 -8.66438 -9.62796 -2.44277 -17.0698 0 0 0 
7.26738e-05 -1.83158e-05 -0.00242627 1.08902 -7.62845 -1.47773 4.81354 0.67267 5.28573 0 0 0 73.1088 -3.8637 31.669 -1.61695e-05 43.709 -1.20045e-05 1.06722e-07 0 0 -64.389 13.3281 45.5111 2.17518e-05 -73.1079 -2.03785e-05 0 0 0 1.84322 0.331046 -4.38761 0.320429 -1.96889 -39.7549 0 0 0 3.55425 1.64038 -7.84711 -7.84665 -2.74918 -19.2564 0 0 0 
7.08947e-05 -1.88841e-05 -0.00242723 1.08881 -7.66978 -0.96695 4.39651 0.302639 6.40232 0 0 0 73.9108 -2.41795 32.7257 -5.92931e-06 43.9972 -9.76195e-06 0 1.92099e-06 0 -63.8962 12.7249 44.4544 -4.24314e-06 -73.626 3.17577e-06 0 0 0 1.62193 11.1475 -5.13878 -12.7178 -13.4032 -42.0694 0 0 0 0.172382 1.32851 -6.49315 -5.65456 -4.22036 -24.2656 0 0 0 
6.93927e-05 -2.00169e-05 -0.00242788 0.911834 -7.37613 -0.428063 4.17177 0.222149 7.94231 0 0 0 74.2888 -1.04784 32.1761 -6.68417e-06 44.6124 -8.2792e-06 2.8625e-14 1.92099e-06 1.70755e-06 -63.8866 10.8117 43.5981 6.30421e-06 -73.2491 -4.30869e-07 0 0 0 2.09443 10.9408 -5.78765 -15.9204 -12.5442 -37.7311 0 0 0 -0.309975 1.17875 -6.99183 -5.12594 -3.99956 -24.5679 0 0 0 
6.85308e-05 -2.07477e-05 -0.00242788 0.751406 -6.64673 -0.122596 4.28187 0.174876 8.81396 0 0 0 74.6548 -1.0574 30.2821 -1.01441e-06 45.2472 -4.22749e-07 0 0 0 -64.1854 8.36093 42.9793 3.27641e-05 -71.6674 -2.7872e-05 0 0 0 2.20428 12.7844 -6.19214 -19.8466 -13.3155 -34.9327 0 0 0 -0.838582 0.877081 -6.92533 -3.71014 -3.56682 -25.802 0 0 0 
